<?xml version="1.0" encoding="utf-8"?>
<!-- Svg Vector Icons : http://www.onlinewebfonts.com/icon -->
<!DOCTYPE svg PUBLIC "-//W3C//DTD SVG 1.1//EN" "http://www.w3.org/Graphics/SVG/1.1/DTD/svg11.dtd">
<svg version="1.1" xmlns="http://www.w3.org/2000/svg" xmlns:xlink="http://www.w3.org/1999/xlink" x="0px" y="0px" viewBox="0 0 1000 1000" enable-background="new 0 0 1000 1000" xml:space="preserve">
<metadata> Svg Vector Icons : http://www.onlinewebfonts.com/icon </metadata>
<g><path d="M10,414.7c0-153.7,162.5-278.3,362.8-278.3c200.4,0,362.8,124.6,362.8,278.3c0,153.7-162.4,278.3-362.8,278.3c-11.7,0-23.3-3.2-34.5-1.3c-16.6,2.9-20.7,3.7-37.4,9.5c-15.8,9.1-15.8,4.1-34.9,24c-12.2,12.7-27.5,26-44.9,37.3c-48.9,31.6-124.7,25-135.5,21.5c-10.6-3.4,32.7-18.7,59.8-58.8c24.4-36.2,18.3-58.8,10-72.1c-7.5-11.6-14.4-23.8-30.4-35.2C54.3,567.3,10,495,10,414.7"/><path d="M483,749.4c44.2,29.5,82.8,55.5,146.7,55.5c10.2,0,20.4-0.4,30.4-1.1c14.7-1.1,22.3-5.5,29-2.2c19.9,4.1,34.2,34.9,77.3,49.7c56.2,19.3,153.6,12,164.6,4.1c12.2-8.6-29-22.6-58.2-47.2c-26.7-22.5-38.2-36.4-31.6-55.5c7.5-10.5,11.5-14.6,19.8-20.5C939.9,674.9,990,589,990,493c0-149.6-91.6-242.3-248.6-266.8c-15.4-2.4-30,6.5-21.9,12.3c69.7,50.7,88.5,103.6,88.5,197.4c0,166.9-121.4,286.8-310,294.1C491.9,730.2,473.1,742.8,483,749.4"/></g>
</svg>