<?xml version="1.0" encoding="UTF-8" standalone="no"?>
<svg
   xmlns:dc="http://purl.org/dc/elements/1.1/"
   xmlns:cc="http://creativecommons.org/ns#"
   xmlns:rdf="http://www.w3.org/1999/02/22-rdf-syntax-ns#"
   xmlns:svg="http://www.w3.org/2000/svg"
   xmlns="http://www.w3.org/2000/svg"
   xmlns:sodipodi="http://sodipodi.sourceforge.net/DTD/sodipodi-0.dtd"
   xmlns:inkscape="http://www.inkscape.org/namespaces/inkscape"
   viewBox="0 0 235.714 220"
   enable-background="new 0 0 64 64"
   id="svg2"
   version="1.1"
   inkscape:version="0.91 r13725"
   sodipodi:docname="catalogIcon-SCA.svg"
   width="235.714"
   height="220">
  <metadata
     id="metadata14">
    <rdf:RDF>
      <cc:Work
         rdf:about="">
        <dc:format>image/svg+xml</dc:format>
        <dc:type
           rdf:resource="http://purl.org/dc/dcmitype/StillImage" />
        <dc:title></dc:title>
      </cc:Work>
    </rdf:RDF>
  </metadata>
  <defs
     id="defs12" />
  <sodipodi:namedview
     pagecolor="#ffffff"
     bordercolor="#666666"
     borderopacity="1"
     objecttolerance="10"
     gridtolerance="10"
     guidetolerance="10"
     inkscape:pageopacity="0"
     inkscape:pageshadow="2"
     inkscape:window-width="1301"
     inkscape:window-height="744"
     id="namedview10"
     showgrid="false"
     inkscape:zoom="1.84375"
     inkscape:cx="32"
     inkscape:cy="98.172062"
     inkscape:window-x="65"
     inkscape:window-y="24"
     inkscape:window-maximized="1"
     inkscape:current-layer="svg2" />
  <g
     id="g3342"
     transform="matrix(3.9285714,0,0,3.9285714,-7.8572825,-628.57142)">
    <path
       inkscape:connector-curvature="0"
       id="path4"
       d="m 54.014,188.004 c -0.035,5.582 -0.273,11.222 0.164,16.798 2.234,-5.416 2.826,-11.154 2.895,-16.783 -0.102,-5.642 -0.662,-11.371 -2.895,-16.802 -0.401,5.577 -0.199,11.206 -0.164,16.787" />
    <path
       inkscape:connector-curvature="0"
       id="path6"
       d="m 62,188.02 c -0.131,-8.449 -0.871,-16.953 -3.578,-25.197 0.045,8.553 0.551,17.099 0.514,25.654 -0.035,8.242 -0.494,16.482 -0.514,24.72 2.717,-8.234 3.447,-16.734 3.578,-25.177" />
    <path
       inkscape:connector-curvature="0"
       id="path8"
       d="m 50.208,183.145 -0.138,-0.03 C 49.552,169.98 46.978,160 43.883,160 c -0.596,0 -1.171,0.377 -1.718,1.067 -1.188,1.322 -16.44,18.026 -29.503,19.641 -1.529,0.189 -2.99,0.346 -4.346,0.459 -1.578,0.133 -3.014,0.207 -4.252,0.207 0,0 -2.064,3.212 -2.064,6.648 0,3.441 2.068,6.648 2.068,6.648 1.238,0 2.676,0.074 4.254,0.205 0.575,0.049 1.177,0.109 1.787,0.172 l 0,13.402 8.082,0 7.938,-7.416 c 8.864,5.846 16.087,13.992 16.087,13.992 l 0,-0.027 c 0.531,0.648 1.09,1.002 1.667,1.002 3.095,0 5.669,-9.98 6.188,-23.115 l 0.138,-0.029 c 0.843,0 1.528,-2.176 1.528,-4.855 -0.001,-2.682 -0.686,-4.856 -1.529,-4.856 m -6.325,-21.047 c 1.429,1.257 3.646,8.565 4.171,20.574 l -8.242,-1.809 c 0.656,-10.926 2.715,-17.574 4.071,-18.765 M 14.15,190.566 c -0.912,0 -1.654,-0.883 -1.654,-1.968 0,-1.088 0.742,-1.97 1.654,-1.97 0.914,0 1.652,0.882 1.652,1.97 0.001,1.086 -0.738,1.968 -1.652,1.968 m 4.041,10.33 0,-4.092 c 0.989,0.387 1.979,0.832 2.961,1.326 l -2.961,2.766 m 0,-6.222 0,-10.433 -4.664,0 c 0.17,-0.617 0.362,-1.201 0.561,-1.729 9.87,-1.811 20.355,-10.882 25.833,-16.244 -1.417,5.133 -2.323,12.959 -2.323,21.732 0,8.798 0.911,16.644 2.337,21.777 -4.709,-4.609 -13.163,-11.994 -21.744,-15.103 m 25.692,19.228 c -1.355,-1.191 -3.415,-7.84 -4.071,-18.766 l 8.242,-1.809 c -0.525,12.009 -2.742,19.318 -4.171,20.575" />
  </g>
</svg>
