<?xml version="1.0" standalone="no"?>
<!DOCTYPE svg PUBLIC "-//W3C//DTD SVG 20010904//EN"
 "http://www.w3.org/TR/2001/REC-SVG-20010904/DTD/svg10.dtd">
<svg version="1.0" xmlns="http://www.w3.org/2000/svg"
 width="626.000000pt" height="626.000000pt" viewBox="0 0 626.000000 626.000000"
 preserveAspectRatio="xMidYMid meet">

<g transform="translate(0.000000,626.000000) scale(0.100000,-0.100000)"
fill="#000000" stroke="none">
<path d="M1835 6254 c-69 -11 -205 -58 -275 -96 -317 -169 -504 -523 -462
-876 41 -354 271 -631 622 -748 80 -27 95 -29 255 -29 161 0 175 2 255 29 291
98 491 296 586 580 131 391 -54 845 -426 1045 -124 66 -232 93 -390 96 -74 2
-148 1 -165 -1z"/>
<path d="M3944 5091 c-50 -23 -90 -73 -107 -132 l-13 -44 -174 -5 -175 -5 -3
-87 -3 -88 -334 0 -335 0 0 -180 0 -180 -253 0 c-250 0 -253 0 -272 -22 -10
-13 -85 -100 -166 -195 l-148 -172 -162 192 c-124 147 -167 191 -183 190 -39
-5 -340 -43 -513 -66 -94 -12 -174 -25 -177 -28 -3 -3 -10 -153 -16 -335 -5
-181 -14 -459 -19 -619 -5 -159 -11 -375 -13 -480 l-3 -190 150 -5 150 -5 9
-157 c8 -149 9 -157 30 -160 l21 -3 0 -955 0 -955 -30 -3 c-48 -4 -141 -21
-267 -49 l-118 -27 0 -163 0 -163 168 0 c131 0 198 6 312 25 181 31 180 31
180 0 l0 -25 195 0 195 0 0 985 0 985 110 0 110 0 0 -985 0 -985 194 0 194 0
6 25 c8 31 9 31 182 0 112 -20 172 -25 307 -25 l167 0 0 163 0 163 -142 33
c-79 18 -171 35 -205 38 l-63 6 0 958 0 959 24 0 c29 0 35 24 38 154 2 50 5
-141 8 -424 l5 -515 1193 -3 1192 -2 0 910 0 910 125 0 125 0 0 330 0 329
-122 3 -123 3 -3 357 -2 358 -288 2 -287 3 -3 88 -3 87 -167 0 c-174 0 -192 4
-192 42 0 35 -39 94 -81 123 -55 39 -161 46 -225 16z m150 -132 c20 -16 26
-29 26 -59 0 -98 -137 -111 -156 -14 -4 24 0 37 21 62 32 38 70 42 109 11z
m-622 -496 l3 -68 568 -3 567 -2 0 70 0 70 190 0 190 0 -2 -257 -3 -258 -72
-3 -73 -3 0 -329 0 -330 75 0 75 0 0 -810 0 -810 -990 0 -990 0 0 1400 0 1400
230 0 229 0 3 -67z"/>
<path d="M4222 3058 l3 -953 215 0 215 0 3 953 2 952 -220 0 -220 0 2 -952z"/>
<path d="M3710 2765 l0 -665 213 2 212 3 0 660 0 660 -212 3 -213 2 0 -665z"/>
<path d="M3180 2620 l0 -520 213 2 212 3 3 518 2 517 -215 0 -215 0 0 -520z"/>
</g>
</svg>
