<?xml version="1.0" standalone="no"?>
<!DOCTYPE svg PUBLIC "-//W3C//DTD SVG 20010904//EN"
 "http://www.w3.org/TR/2001/REC-SVG-20010904/DTD/svg10.dtd">
<svg version="1.0" xmlns="http://www.w3.org/2000/svg"
 width="564.000000pt" height="421.000000pt" viewBox="0 0 564.000000 421.000000"
 preserveAspectRatio="xMidYMid meet">

<g transform="translate(0.000000,421.000000) scale(0.100000,-0.100000)"
fill="#000000" stroke="none">
<path d="M3316 3859 c-14 -17 -26 -37 -26 -44 0 -12 -59 -15 -342 -17 -315 -3
-346 -5 -382 -22 -21 -11 -47 -33 -57 -50 -18 -30 -19 -82 -19 -1578 l0 -1546
27 -33 c15 -17 45 -40 68 -50 38 -18 94 -19 1140 -19 1046 0 1102 1 1140 19
23 10 53 33 68 50 l27 33 0 1546 c0 1496 -1 1548 -19 1578 -10 17 -36 39 -57
50 -35 17 -67 19 -336 22 -245 2 -298 5 -298 17 0 7 -12 27 -26 44 l-26 31
-428 0 -428 0 -26 -31z m194 -129 c8 -14 8 -26 0 -40 -19 -35 -80 -20 -80 20
0 40 61 55 80 20z m594 -2 c16 -26 -4 -53 -40 -53 -23 0 -30 5 -32 23 -2 13
-1 30 2 38 8 20 56 14 70 -8z m-806 -162 c24 -65 32 -66 477 -66 272 0 403 3
418 11 29 15 56 50 57 72 0 16 19 17 255 17 l255 0 0 -1438 c0 -1105 -3 -1441
-12 -1450 -17 -17 -2029 -17 -2046 0 -9 9 -12 345 -12 1450 l0 1438 298 0 298
0 12 -34z"/>
<path d="M2880 2950 l0 -270 265 0 265 0 0 270 0 270 -265 0 -265 0 0 -270z
m430 0 l0 -170 -165 0 -165 0 0 170 0 170 165 0 165 0 0 -170z"/>
<path d="M3550 3070 l0 -50 510 0 510 0 0 50 0 50 -510 0 -510 0 0 -50z"/>
<path d="M3557 2923 c-4 -3 -7 -26 -7 -50 l0 -43 440 0 440 0 0 50 0 50 -433
0 c-239 0 -437 -3 -440 -7z"/>
<path d="M2880 2125 l0 -265 265 0 265 0 0 265 0 265 -265 0 -265 0 0 -265z
m430 0 l0 -165 -165 0 -165 0 0 165 0 165 165 0 165 0 0 -165z"/>
<path d="M3552 2343 l3 -48 485 0 485 0 3 48 3 47 -491 0 -491 0 3 -47z"/>
<path d="M3550 2150 l0 -50 390 0 390 0 0 50 0 50 -390 0 -390 0 0 -50z"/>
<path d="M3557 2003 c-4 -3 -7 -26 -7 -50 l0 -43 465 0 465 0 0 50 0 50 -458
0 c-252 0 -462 -3 -465 -7z"/>
<path d="M2880 1305 l0 -265 265 0 265 0 0 265 0 265 -265 0 -265 0 0 -265z
m430 -5 l0 -170 -165 0 -165 0 0 170 0 170 165 0 165 0 0 -170z"/>
<path d="M3552 1423 l3 -48 413 -3 412 -2 0 50 0 50 -416 0 -415 0 3 -47z"/>
<path d="M3550 1230 l0 -50 270 0 270 0 0 50 0 50 -270 0 -270 0 0 -50z"/>
<path d="M734 3566 l-34 -34 0 -1035 0 -1034 23 -34 c13 -19 38 -39 57 -46 26
-9 230 -12 778 -12 l742 -1 0 125 0 125 -672 2 -672 3 -7 25 c-12 42 -10 1669
1 1691 10 18 29 19 680 19 l670 0 0 120 0 120 -766 0 -766 0 -34 -34z"/>
<path d="M1040 2360 l0 -650 630 0 630 0 0 221 c0 207 -1 221 -17 214 -230
-100 -441 -77 -596 65 -80 73 -102 115 -136 268 -17 72 -44 161 -61 196 -37
79 -112 163 -194 219 -59 40 -219 117 -243 117 -10 0 -13 -137 -13 -650z"/>
<path d="M1960 1085 l0 -195 170 0 170 0 0 195 0 195 -170 0 -170 0 0 -195z"/>
<path d="M1380 750 l0 -50 460 0 460 0 0 50 0 50 -460 0 -460 0 0 -50z"/>
</g>
</svg>
