<?xml version="1.0" encoding="UTF-8" standalone="no"?>
<svg
   xmlns:dc="http://purl.org/dc/elements/1.1/"
   xmlns:cc="http://creativecommons.org/ns#"
   xmlns:rdf="http://www.w3.org/1999/02/22-rdf-syntax-ns#"
   xmlns:svg="http://www.w3.org/2000/svg"
   xmlns="http://www.w3.org/2000/svg"
   xmlns:sodipodi="http://sodipodi.sourceforge.net/DTD/sodipodi-0.dtd"
   xmlns:inkscape="http://www.inkscape.org/namespaces/inkscape"
   viewBox="0 0 150 200"
   id="svg3384"
   version="1.1"
   inkscape:version="0.91 r13725"
   sodipodi:docname="catalogIcon-SCA.svg"
   width="150"
   height="200">
  <metadata
     id="metadata3392">
    <rdf:RDF>
      <cc:Work
         rdf:about="">
        <dc:format>image/svg+xml</dc:format>
        <dc:type
           rdf:resource="http://purl.org/dc/dcmitype/StillImage" />
        <dc:title></dc:title>
      </cc:Work>
    </rdf:RDF>
  </metadata>
  <defs
     id="defs3390" />
  <sodipodi:namedview
     pagecolor="#ffffff"
     bordercolor="#666666"
     borderopacity="1"
     objecttolerance="10"
     gridtolerance="10"
     guidetolerance="10"
     inkscape:pageopacity="0"
     inkscape:pageshadow="2"
     inkscape:window-width="1301"
     inkscape:window-height="744"
     id="namedview3388"
     showgrid="false"
     inkscape:zoom="1"
     inkscape:cx="48"
     inkscape:cy="25.38326"
     inkscape:window-x="65"
     inkscape:window-y="24"
     inkscape:window-maximized="1"
     inkscape:current-layer="svg3384" />
  <path
     d="m 118.15753,0.0147 c -3.40446,0.12793 -6.83735,1.08744 -10.02148,3.02066 -8.64263,5.00363 -16.83749,10.00904 -25.48013,15.46754 -0.45487,0.45488 -0.9062,0.91331 -0.9062,1.36818 0.45488,1.8195 0.4531,3.64078 0.4531,6.37004 0.45488,0 0.91508,-0.46199 0.91508,-0.46199 9.09751,-5.4585 18.64812,-10.91346 27.74563,-16.82684 3.18413,-1.8195 6.82491,-2.73103 10.91879,-1.82128 6.36826,1.36463 11.37011,6.82491 11.82499,13.19317 0.45487,5.91338 -1.81773,10.91524 -7.27624,14.09936 -5.00363,3.18413 -9.55771,5.91516 -14.56134,8.64442 -0.38321,0 -0.76287,0.33704 -1.14608,0.71074 -9.7751,-5.32398 -19.55192,-10.59326 -29.32702,-15.72519 -0.45488,0 -0.91509,-0.4531 -0.91509,-0.4531 -0.0968,-0.0323 -0.17419,-0.03 -0.26653,-0.0533 1.08319,-0.35793 1.21385,-0.36756 1.63471,0.0533 l 0,-7.72933 c -2.27437,2.72925 -5.00718,3.63368 -8.19131,3.63368 -3.18413,0 -5.90805,-0.90443 -8.18243,-3.63368 0,0.15399 -0.0158,0.26763 -0.0178,0.41756 -0.0253,-0.44129 -0.45564,-0.87066 -0.89731,-0.87066 C 54.908487,13.95948 44.908331,8.95585 35.355946,3.49734 31.262066,1.22296 26.711537,0.76809 22.162782,1.22296 9.881144,3.49734 2.603136,14.4108 3.967763,24.87294 c 0.909751,6.36825 4.543423,11.82854 10.456805,15.46754 5.00363,2.72925 10.46391,5.46028 15.467541,8.64441 0.310357,0.31036 0.622497,0.32637 0.932854,0.21322 -5.920951,3.53592 -11.838744,7.067716 -17.75969,10.696686 -6.823133,4.093879 -10.010818,10.462136 -10.465694,18.19502 0,0.909751 -0.0018,1.826607 0.453102,2.736358 1.364626,10.917011 10.467467,19.101218 21.384479,19.101218 4.093879,0 7.732883,-0.906199 11.371887,-3.180576 L 68.72533,76.997045 c -0.5462,0.327988 -1.09101,0.655676 -1.5281,1.092771 -0.90975,0.454875 -2.27971,1.3664 -3.18946,1.821276 l 0,1.368183 c 0,4.548755 -0.4531,8.644408 -0.4531,13.193163 0,7.007772 -0.31957,14.012452 -0.6752,21.020222 -1.649806,0.60129 -12.523391,5.83006 -12.971061,6.72541 l 0.453097,0.4531 c 7.732883,4.09388 15.471094,8.64618 23.658854,12.74006 0.45488,0.45488 0.90265,0.45488 1.8124,0 6.82313,-4.09388 14.10647,-8.19131 21.38448,-12.74006 0,0 0.45132,-0.4531 0.90619,-0.4531 -4.09388,-2.27438 -8.6373,-4.55053 -12.73118,-6.37004 0,0 -0.46198,0.002 -0.46198,-0.45309 l 0,4.09565 c 0,1.8195 -0.44777,3.18413 -1.8124,4.54876 -0.0914,0.0914 -0.22861,0.1756 -0.32871,0.26653 0.79897,-1.10765 1.23491,-2.40195 1.23491,-3.90909 -0.45487,-8.18776 -0.45132,-16.3773 -0.9062,-24.565056 0,-5.458506 -0.46198,-10.462137 -0.46198,-15.920642 0,-0.909751 0.004,-1.359296 -0.9062,-1.359296 -1.36462,-0.454875 -2.73103,-1.364626 -4.09565,-2.274377 -1.81951,-0.909751 -2.26905,-3.191234 -1.3593,-5.010736 0.90975,-1.819502 3.18235,-2.269046 5.00186,-1.359295 -1.36463,-0.454876 -3.18591,-0.0053 -4.09566,1.359295 -0.90975,1.364627 -0.45843,3.185903 0.9062,4.095654 0.45487,0 0.4602,0.453101 0.91508,0.453101 11.82676,6.368257 24.11017,13.194942 35.93694,19.563199 5.00363,2.729253 10.00015,3.185907 15.45866,1.82128 10.91701,-2.729253 18.20212,-13.194946 16.38262,-24.111958 -0.90975,-6.823132 -5.0054,-12.283412 -10.91878,-15.467541 -6.1359,-3.374748 -12.27235,-6.726368 -18.40825,-10.083668 0.10534,-0.0605 0.21323,-0.16145 0.21323,-0.37314 4.09388,-2.7293 8.6373,-5.00896 12.73118,-7.73821 7.73288,-5.45852 10.92412,-12.27809 9.55949,-21.3756 C 138.27153,6.79163 128.37088,-0.3691 118.1575,0.0147 Z M 24.499376,7.43308 c 0.732954,-0.0107 1.473019,0.0373 2.212191,0.15103 2.274378,0 4.088549,0.91153 5.908051,1.82128 10.462136,5.45851 20.472949,11.37722 30.935082,16.83573 0.45488,0 0.91331,0.45309 1.36818,0.45309 0,-2.20383 0.0126,-4.39347 0.42645,-6.18346 -0.0555,2.83268 -0.39452,5.0565 0.0267,8.00474 -3.18412,1.81951 -6.828459,4.08855 -10.012588,5.90805 -6.148525,3.76845 -12.295257,7.43441 -18.443782,11.10536 0.07701,-0.0623 0.186476,-0.12428 0.248762,-0.18657 -0.454875,-0.45487 -0.904419,-0.4531 -1.359295,-0.4531 L 18.067204,35.33863 C 10.789197,31.24475 8.511266,22.60033 12.15027,15.32233 14.538367,10.54613 19.368762,7.50771 24.499426,7.43308 Z m 49.059034,5.16177 c -1.36462,0 -2.72215,-0.004 -4.08677,0.9062 -0.90975,0.45487 -1.82661,0.91153 -2.73636,1.82128 -1.8195,1.8195 -1.8195,4.09032 0,5.45495 0.45487,0.45487 1.3664,0.9133 1.82128,1.36818 3.18412,1.36463 6.37358,1.36463 10.01259,0 0.90975,-0.45488 1.35752,-0.91331 1.81239,-1.36818 1.81951,-1.8195 1.81951,-4.08855 0,-5.90805 -0.45487,-0.45488 -1.36462,-0.91331 -2.27437,-1.36818 -1.36463,-0.90975 -2.72926,-0.9062 -4.54876,-0.9062 z m 4.94855,14.57912 c 0.29292,0.0345 0.57525,0.16052 0.86177,0.25764 -0.83837,0.004 -1.50514,0.42127 -2.16776,1.08388 -0.90975,0.90975 -1.36108,1.81595 -0.9062,3.18058 0.45488,1.36462 0.90975,1.8195 2.27438,2.27438 8.27088,4.7884 16.93353,9.17799 25.24026,13.93056 -0.22744,0.0569 -0.45665,0.1688 -0.68409,0.1688 -6.36826,3.639 -12.73296,7.73288 -19.10122,11.371884 -0.45487,0.454876 -0.9062,0.913308 -0.9062,1.368184 l 0,6.823132 c 9.09751,-5.458506 18.19502,-10.462136 27.29253,-15.92064 -1.49214,-0.89529 -2.76891,-1.62927 -3.99793,-2.38988 8.66012,4.74056 17.66272,9.497758 26.27973,14.667959 5.00363,2.729253 7.73821,7.281565 7.73821,12.740071 0,5.458506 -2.72748,10.00193 -7.27623,12.731183 -5.00363,2.729253 -10.01082,2.729253 -15.01445,0 L 82.65592,70.360485 c -0.15236,-0.152365 -0.30073,-0.19914 -0.4531,-0.26653 l 0,-1.101649 c 0,-4.548755 -0.4531,-9.09751 -0.4531,-13.646266 0,-5.91338 -0.45309,-11.81965 -0.45309,-17.73304 0,-0.45487 -0.005,-0.9133 -0.91509,-1.36818 -1.36462,-0.90975 -2.72214,-1.36462 -4.08677,-2.27437 -1.8195,-0.90976 -2.27793,-3.18236 -1.36818,-5.00186 0.68231,-1.36462 2.13045,-1.9652 3.58037,-1.79462 z m -10.17251,0.42644 c 0.68231,0.11372 1.36107,0.46021 2.04339,0.91508 0.90975,0.90975 1.36107,2.26905 0.90619,3.63368 -0.45487,0.90975 -0.90264,1.8195 -1.81239,2.27437 -1.36463,0.90976 -3.18413,1.81773 -4.54876,2.72748 0,3.639 -0.007,7.73286 -0.46198,11.37189 0,3.639 -0.4531,7.732882 -0.4531,11.371886 0,0.139265 -0.008,0.294782 -0.009,0.435329 C 63.981,59.88462 63.54717,59.441694 63.10149,59.441694 57.188105,56.257566 51.272945,53.07699 45.359564,49.43799 45.057881,49.1363 44.755048,49.10852 44.453366,49.207 52.653238,44.26736 60.967743,39.20515 69.00954,34.42354 c 0.45487,0 0.91508,-0.45132 0.91508,-0.90619 0.90975,-0.90975 1.36107,-2.27793 0.90619,-3.64256 -0.44785,-1.34358 -1.77501,-2.23797 -3.11838,-2.26549 0.20586,-0.0102 0.41604,-0.0432 0.6219,-0.009 z M 42.161341,50.58406 c -0.564355,0.33862 -1.126295,0.67683 -1.803509,1.12831 -0.909751,0.45487 -1.364626,0.90442 -2.274377,1.35929 8.642634,4.548758 17.28349,9.104618 25.471245,14.108249 0,-2.221107 0.0117,-4.442128 0.43533,-6.663212 -0.0432,3.484442 -0.41223,7.309981 0.0178,10.749986 0.90975,-0.454875 1.36463,-0.90442 2.27438,-1.359295 0.90975,-0.454876 1.82483,-0.907977 3.18946,-0.453102 0.74926,0.249754 1.33272,0.648716 1.73244,1.172728 -0.35853,-0.295555 -0.77116,-0.550235 -1.27934,-0.719626 -0.90975,-0.454876 -2.27971,-0.0018 -3.18946,0.453097 -2.72925,1.364626 -5.000078,3.184128 -7.729331,4.548755 -8.642635,5.458506 -17.743697,10.462136 -26.386331,15.920642 -3.184129,1.819502 -6.364705,2.729253 -10.003709,2.274377 C 13.063554,91.739633 7.150173,81.732372 11.244052,72.634862 12.608678,69.450734 14.884834,67.178135 17.614087,65.358633 25.869709,60.361807 33.955303,55.53133 42.161371,50.58406 Z m 6.378919,72.5402 c -4.548755,17.74015 -9.095736,35.93872 -14.099366,53.67887 1.819502,1.36462 38.662646,22.2889 39.117516,22.74377 l 0,-63.22947 c -2.72925,-1.8195 -24.108399,-13.19317 -25.01815,-13.19317 z m 50.0363,0 c -8.18775,4.09388 -16.37018,8.64442 -24.10307,13.19317 l 0,63.68257 c 13.64627,-7.73288 27.29431,-15.46577 40.4857,-22.74377 -5.45851,-18.19502 -10.92412,-35.93695 -16.38263,-54.13197 z m 20.0163,41.97826 0,0.1155 c 0.027,0.0323 0.0529,0.0655 0.08,0.0977 -0.008,-0.0298 -0.0183,-0.059 -0.0266,-0.0888 -0.0402,-0.10198 -0.022,-0.0459 -0.0533,-0.12438 z m 0.08,0.21322 c 0.0117,0.0416 0.0239,0.0828 0.0355,0.12438 0.007,0.005 0.0192,0.004 0.0266,0.009 -0.036,-0.0931 -0.005,-0.0151 -0.0444,-0.11549 -0.005,-0.006 -0.0124,-0.0114 -0.0178,-0.0178 z m -0.08,-0.0622 0,0.14215 c 0.0163,0.0113 0.0455,0.007 0.0622,0.0178 -0.03,-0.084 -0.0334,-0.0787 -0.0622,-0.15992 z"
     id="path3386"
     inkscape:connector-curvature="0" />
</svg>
