<?xml version="1.0" encoding="UTF-8" standalone="no"?>
<!-- Created with Inkscape (http://www.inkscape.org/) -->

<svg
   xmlns:dc="http://purl.org/dc/elements/1.1/"
   xmlns:cc="http://creativecommons.org/ns#"
   xmlns:rdf="http://www.w3.org/1999/02/22-rdf-syntax-ns#"
   xmlns:svg="http://www.w3.org/2000/svg"
   xmlns="http://www.w3.org/2000/svg"
   xmlns:sodipodi="http://sodipodi.sourceforge.net/DTD/sodipodi-0.dtd"
   xmlns:inkscape="http://www.inkscape.org/namespaces/inkscape"
   width="520mm"
   height="200mm"
   viewBox="0 0 1842.5197 708.66141"
   id="svg2"
   version="1.1"
   inkscape:version="0.91 r13725"
   sodipodi:docname="catalogIcon-BNMP.svg">
  <defs
     id="defs4">
    <style
       id="style3599">.cls-1{fill:#1a1a1a;}.cls-2{fill:none;stroke:#1a1a1a;stroke-linejoin:round;stroke-width:3px;}</style>
  </defs>
  <sodipodi:namedview
     id="base"
     pagecolor="#ffffff"
     bordercolor="#666666"
     borderopacity="1.0"
     inkscape:pageopacity="0.0"
     inkscape:pageshadow="2"
     inkscape:zoom="0.35"
     inkscape:cx="1217.3197"
     inkscape:cy="301.16252"
     inkscape:document-units="px"
     inkscape:current-layer="layer1"
     showgrid="false"
     width="520mm"
     showguides="false"
     inkscape:guide-bbox="true"
     inkscape:snap-object-midpoints="true"
     inkscape:window-width="1301"
     inkscape:window-height="744"
     inkscape:window-x="65"
     inkscape:window-y="24"
     inkscape:window-maximized="1">
    <inkscape:grid
       type="xygrid"
       id="grid3634" />
    <sodipodi:guide
       position="760.00002,479.99998"
       orientation="1,0"
       id="guide3636" />
    <sodipodi:guide
       position="800.00002,759.99997"
       orientation="1,0"
       id="guide3638" />
  </sodipodi:namedview>
  <metadata
     id="metadata7">
    <rdf:RDF>
      <cc:Work
         rdf:about="">
        <dc:format>image/svg+xml</dc:format>
        <dc:type
           rdf:resource="http://purl.org/dc/dcmitype/StillImage" />
        <dc:title></dc:title>
      </cc:Work>
    </rdf:RDF>
  </metadata>
  <g
     inkscape:label="Camada 1"
     inkscape:groupmode="layer"
     id="layer1"
     transform="translate(0,-343.70079)">
    <g
       id="g3703"
       transform="translate(140.99946,1.4936465)">
      <g
         id="g3671">
        <g
           id="g3640">
          <g
             transform="translate(800.81314,473.77909)"
             id="g3510">
            <g
               id="g3466">
              <path
                 inkscape:connector-curvature="0"
                 d="m 150.203,239.389 c 9.691,0 17.576,-7.884 17.576,-17.575 0,-9.691 -7.884,-17.576 -17.576,-17.576 -9.691,0 -17.575,7.885 -17.575,17.576 0,9.691 7.884,17.575 17.575,17.575 z m 0,-22.151 c 2.523,0 4.576,2.053 4.576,4.576 0,2.523 -2.053,4.575 -4.576,4.575 -2.523,0 -4.575,-2.052 -4.575,-4.575 0,-2.523 2.052,-4.576 4.575,-4.576 z"
                 id="path3468" />
              <path
                 inkscape:connector-curvature="0"
                 d="m 221.814,132.628 c -9.691,0 -17.575,7.885 -17.575,17.576 0,9.691 7.884,17.575 17.575,17.575 9.691,0 17.576,-7.884 17.576,-17.575 0,-9.691 -7.885,-17.576 -17.576,-17.576 z m 0,22.151 c -2.523,0 -4.575,-2.052 -4.575,-4.575 0,-2.523 2.052,-4.576 4.575,-4.576 2.523,0 4.576,2.053 4.576,4.576 0,2.523 -2.054,4.575 -4.576,4.575 z"
                 id="path3470" />
              <path
                 inkscape:connector-curvature="0"
                 d="m 445.517,110.867 c 0,-6.229 -2.529,-11.878 -6.614,-15.976 C 435.295,69.634 423.088,46.347 404.306,29.097 384.767,11.153 359.285,0.837 332.551,0.05 308.52,-0.656 285.456,6.205 265.833,19.889 c -0.064,0.045 -0.128,0.092 -0.192,0.139 -3.069,2.127 -6.599,3.551 -10.211,4.121 l -52.467,8.229 C 188.371,34.672 177.78,47.052 177.78,61.814 l 0,42.554 -4.562,0 c -2.709,-7.872 -10.17,-13.552 -18.95,-13.552 -8.78,0 -16.241,5.68 -18.949,13.552 l -16.774,0 c -7.818,0 -14.178,6.36 -14.178,14.178 l 0,16.774 c -7.872,2.709 -13.552,10.17 -13.552,18.95 0,8.78 5.68,16.241 13.552,18.949 l 0,4.562 -42.554,0 c -14.762,0 -27.142,10.591 -29.436,25.185 l -8.229,52.459 c -0.569,3.613 -1.99,7.137 -4.112,10.204 -0.051,0.067 -0.1,0.135 -0.148,0.204 -13.684,19.624 -20.544,42.695 -19.839,66.718 0.787,26.734 11.103,52.217 29.047,71.755 17.25,18.783 40.537,30.989 65.794,34.597 4.098,4.085 9.747,6.614 15.976,6.614 6.222,0 11.865,-2.524 15.962,-6.6 54.278,-7.819 94.902,-54.55 94.902,-109.713 0,-26.014 -12.552,-54.214 -25.795,-72.207 0.848,-2.338 1.127,-4.877 0.73,-7.425 l -7.311,-46.608 c -2.294,-14.592 -14.673,-25.183 -29.436,-25.183 l -42.553,0 0,-4.562 c 7.872,-2.709 13.552,-10.17 13.552,-18.949 0,-8.779 -5.68,-16.241 -13.552,-18.95 l 0,-16.774 c 0,-0.65 0.528,-1.178 1.178,-1.178 l 16.774,0 c 2.709,7.872 10.17,13.552 18.949,13.552 8.779,0 16.241,-5.68 18.95,-13.552 l 4.562,0 0,42.553 c 0,14.762 10.591,27.142 25.185,29.436 l 46.613,7.311 c 0.783,0.122 1.566,0.182 2.344,0.182 1.752,0 3.471,-0.314 5.089,-0.902 17.994,13.238 46.185,25.784 72.192,25.784 55.163,0 101.894,-40.624 109.714,-94.902 4.078,-4.098 6.602,-9.741 6.602,-15.963 z M 181.895,329.205 c 0,39.165 -31.863,71.029 -71.028,71.029 -39.165,0 -71.028,-31.863 -71.028,-71.029 0,-39.165 31.863,-71.028 71.028,-71.028 39.165,0 71.028,31.863 71.028,71.028 z m -71.028,103.312 c -5.316,0 -9.642,-4.325 -9.642,-9.642 0,-5.317 4.325,-9.642 9.642,-9.642 5.317,0 9.642,4.325 9.642,9.642 0,5.317 -4.326,9.642 -9.642,9.642 z m 22.583,-8.096 c 0.035,-0.511 0.059,-1.026 0.059,-1.546 0,-4.36 -1.239,-8.436 -3.383,-11.894 37.079,-8.732 64.77,-42.07 64.77,-81.776 0,-26.75 -12.58,-50.602 -32.117,-66.002 5.07,0.872 10.104,1.888 14.878,3.083 1.382,0.401 2.8,0.605 4.216,0.605 1.587,0 3.15,-0.256 4.634,-0.743 11.262,15.909 22.226,40.812 22.226,63.055 -0.002,45.774 -31.693,84.948 -75.283,95.218 z m 43.063,-219.441 7.309,46.599 c 0.097,0.623 -0.059,1.164 -0.485,1.634 -0.527,0.587 -1.28,0.824 -2.086,0.581 -0.099,-0.03 -0.199,-0.058 -0.299,-0.083 -23.338,-5.863 -67.957,-8.534 -70.086,-8.534 -46.333,0 -84.028,37.695 -84.028,84.028 0,39.708 27.694,73.047 64.774,81.777 -2.145,3.459 -3.388,7.533 -3.388,11.893 0,0.53 0.025,1.054 0.061,1.575 C 69.28,420.004 51.946,409.968 38.67,395.513 22.839,378.275 13.738,355.78 13.043,332.169 12.422,311 18.449,290.674 30.474,273.379 c 0.037,-0.05 0.074,-0.101 0.109,-0.152 l 0.001,0.001 c 3.306,-4.711 5.52,-10.167 6.406,-15.784 l 8.229,-52.462 c 1.294,-8.229 8.272,-14.202 16.594,-14.202 l 98.107,0 c 8.321,0.001 15.3,5.973 16.593,14.2 z m -65.646,-43.659 c -3.889,0 -7.052,-3.163 -7.052,-7.052 0,-3.889 3.164,-7.052 7.052,-7.052 3.888,0 7.052,3.164 7.052,7.052 0,3.888 -3.164,7.052 -7.052,7.052 z m 43.402,-43.402 c -3.888,0 -7.052,-3.163 -7.052,-7.052 0,-3.889 3.164,-7.052 7.052,-7.052 3.889,0 7.052,3.164 7.052,7.052 0,3.888 -3.164,7.052 -7.052,7.052 z m 278.248,-7.052 c 0,5.316 -4.325,9.642 -9.642,9.642 -5.317,0 -9.642,-4.325 -9.642,-9.642 0,-5.317 4.325,-9.642 9.642,-9.642 5.317,0 9.642,4.326 9.642,9.642 z m -180.932,72.956 -46.603,-7.31 c -8.229,-1.294 -14.202,-8.272 -14.202,-16.594 l 0,-98.106 c 0,-8.321 5.973,-15.3 14.2,-16.594 l 52.47,-8.23 c 5.612,-0.885 11.068,-3.099 15.779,-6.405 l -10e-4,-0.002 c 0.047,-0.033 0.095,-0.067 0.141,-0.101 17.297,-12.03 37.636,-18.059 58.8,-17.438 23.611,0.695 46.107,9.797 63.344,25.627 14.456,13.276 24.491,30.611 28.937,49.615 -0.521,-0.036 -1.045,-0.061 -1.575,-0.061 -4.361,0 -8.434,1.245 -11.893,3.39 -8.73,-37.082 -42.069,-64.777 -81.778,-64.777 -46.333,0 -84.028,37.695 -84.028,84.029 0,2.128 2.671,46.75 8.534,70.085 0.025,0.101 0.053,0.201 0.083,0.3 0.065,0.214 0.098,0.422 0.098,0.62 0,0.544 -0.247,1.079 -0.703,1.488 -0.445,0.405 -0.987,0.561 -1.603,0.464 z m 6.592,-72.956 c 0,-39.165 31.863,-71.029 71.028,-71.029 39.166,0 71.029,31.863 71.029,71.029 0,39.165 -31.863,71.028 -71.029,71.028 -39.165,0 -71.028,-31.863 -71.028,-71.028 z m 71.026,97.864 c -22.243,0 -47.147,-10.964 -63.056,-22.226 0.487,-1.484 0.744,-3.047 0.744,-4.633 0,-1.417 -0.204,-2.834 -0.605,-4.217 -1.195,-4.774 -2.213,-9.809 -3.085,-14.88 15.4,19.539 39.253,32.12 66.004,32.12 39.707,0 73.046,-27.693 81.777,-64.773 3.459,2.144 7.533,3.386 11.894,3.386 0.52,0 1.034,-0.024 1.546,-0.059 -10.271,43.592 -49.445,75.282 -95.219,75.282 z"
                 id="path3472" />
            </g>
            <g
               id="g3474" />
            <g
               id="g3476" />
            <g
               id="g3478" />
            <g
               id="g3480" />
            <g
               id="g3482" />
            <g
               id="g3484" />
            <g
               id="g3486" />
            <g
               id="g3488" />
            <g
               id="g3490" />
            <g
               id="g3492" />
            <g
               id="g3494" />
            <g
               id="g3496" />
            <g
               id="g3498" />
            <g
               id="g3500" />
            <g
               id="g3502" />
          </g>
          <g
             transform="matrix(4.3852036,0,0,4.3852036,256.34685,415.06856)"
             id="g3624">
            <path
               style="fill:#1a1a1a"
               inkscape:connector-curvature="0"
               class="cls-1"
               d="m 91.32055,4.37228 20.48889,20.61743 0,99.01029 -95.61877,0 0,-119.62772 75.12988,0 m 1.24817,-3 -79.37805,0 0,125.62772 101.61877,0 0,-103.24747 -22.24072,-22.38025 0,0 z"
               id="path3603" />
            <polyline
               style="fill:none;stroke:#1a1a1a;stroke-width:3px;stroke-linejoin:round"
               class="cls-2"
               points="113.529 23.706 92.569 23.706 92.569 3.002"
               id="polyline3605" />
            <line
               style="fill:none;stroke:#1a1a1a;stroke-width:3px;stroke-linejoin:round"
               class="cls-2"
               x1="27.70755"
               y1="38.893059"
               x2="99.175789"
               y2="38.893059"
               id="line3607" />
            <line
               style="fill:none;stroke:#1a1a1a;stroke-width:3px;stroke-linejoin:round"
               class="cls-2"
               x1="27.70755"
               y1="49.732201"
               x2="99.175789"
               y2="49.732201"
               id="line3609" />
            <line
               style="fill:none;stroke:#1a1a1a;stroke-width:3px;stroke-linejoin:round"
               class="cls-2"
               x1="27.70755"
               y1="60.571339"
               x2="83.542107"
               y2="60.571339"
               id="line3611" />
            <line
               style="fill:none;stroke:#1a1a1a;stroke-width:3px;stroke-linejoin:round"
               class="cls-2"
               x1="28.901751"
               y1="81.887421"
               x2="41.285061"
               y2="94.270729"
               id="line3613" />
            <line
               style="fill:none;stroke:#1a1a1a;stroke-width:3px;stroke-linejoin:round"
               class="cls-2"
               x1="41.285061"
               y1="81.887421"
               x2="28.901751"
               y2="94.270729"
               id="line3615" />
            <line
               style="fill:none;stroke:#1a1a1a;stroke-width:3px;stroke-linejoin:round"
               class="cls-2"
               x1="27.662109"
               y1="103.66115"
               x2="99.175789"
               y2="103.66115"
               id="line3617" />
          </g>
        </g>
      </g>
    </g>
  </g>
</svg>
